<?xml version="1.0" encoding="UTF-8" standalone="no"?>
<svg
   xmlns:dc="http://purl.org/dc/elements/1.1/"
   xmlns:cc="http://creativecommons.org/ns#"
   xmlns:rdf="http://www.w3.org/1999/02/22-rdf-syntax-ns#"
   xmlns:svg="http://www.w3.org/2000/svg"
   xmlns="http://www.w3.org/2000/svg"
   viewBox="0 0 4580 1880"
   height="1880"
   width="4580"
   xml:space="preserve"
   id="svg2"
   version="1.1"><metadata
     id="metadata8"><rdf:RDF><cc:Work
         rdf:about=""><dc:format>image/svg+xml</dc:format><dc:type
           rdf:resource="http://purl.org/dc/dcmitype/StillImage" /></cc:Work></rdf:RDF></metadata><defs
     id="defs6"><clipPath
       id="clipPath20"
       clipPathUnits="userSpaceOnUse"><path
         id="path18"
         d="M 7,9 H 3435 V 1410 H 7 Z" /></clipPath><clipPath
       id="clipPath30"
       clipPathUnits="userSpaceOnUse"><path
         id="path28"
         d="M 6,8 H 3435 V 1410 H 6 Z" /></clipPath></defs><g
     transform="matrix(1.3333333,0,0,1.3333333,0,4.7e-5)"
     id="g10"><g
       id="g12" /><g
       id="g14"><g
         clip-path="url(#clipPath20)"
         id="g16"><path
           id="path22"
           style="fill:#00121a;fill-opacity:0.98431402;fill-rule:nonzero;stroke:none"
           d="M 7.488,9.141 H 3442.953 V 1409.598 H 7.488 Z" /></g></g><g
       id="g24"><g
         clip-path="url(#clipPath30)"
         id="g26"><g
           id="g32"><path
             id="path34"
             style="fill:none;stroke:#000000;stroke-width:1.53391004;stroke-linecap:butt;stroke-linejoin:miter;stroke-miterlimit:4;stroke-dasharray:none;stroke-opacity:1"
             d="M 7.488,9.141 H 3442.953 V 1409.598 H 7.488 Z" /></g><path
           id="path36"
           style="fill:#ffffff;fill-opacity:1;fill-rule:nonzero;stroke:none"
           d="m 1454.25,1131.383 c -2.68,-0.598 -7.914,-2.598 -11.625,-4.438 -22.41,-11.121 -34.039,-33.172 -32.34,-61.324 0.586,-9.672 3.219,-20.519 6.785,-27.93 7.477,-15.55 22.563,-27.82 39.379,-32.031 8.918,-2.234 21.121,-1.765 29.676,1.141 20.434,6.937 34.504,23.668 38.324,45.57 1.602,9.192 1.067,24.567 -1.176,33.629 -5.132,20.758 -20.378,37.398 -40.539,44.254 -6.351,2.16 -21.246,2.75 -28.484,1.129 z m 21.152,-13.219 c 6.985,-1.473 11.809,-4.32 18.297,-10.801 6.649,-6.64 10.43,-13.148 12.856,-22.113 1.875,-6.949 1.871,-27.617 -0.012,-34.445 -2.348,-8.504 -5.637,-14.207 -11.762,-20.371 -9.535,-9.602 -21.363,-13.969 -32.718,-12.086 -15.168,2.511 -28.262,15.644 -33.047,33.152 -1.903,6.973 -1.938,26.887 -0.055,33.75 3.004,10.941 8.457,19.281 16.519,25.266 5.598,4.152 9.594,6.019 15.758,7.355 5.864,1.277 9.164,1.344 14.16,0.293 v 0 z m 257.36,11.77 c -9.633,-2.336 -18.199,-8.836 -21.688,-16.461 -5.933,-12.961 -3.34,-31.895 5.957,-43.461 2.856,-3.555 10.145,-9.137 14.719,-11.278 1.855,-0.867 3.516,-1.671 3.691,-1.785 0.176,-0.113 -2.441,-3.031 -5.812,-6.484 -7.949,-8.149 -10.25,-12.809 -10.227,-20.715 0.039,-11.977 7.77,-20.906 21.106,-24.379 11.984,-3.121 26.629,0.109 34.285,7.563 6.863,6.683 8.844,17.847 4.75,26.781 -2.328,5.086 -8.57,11.621 -13.086,13.703 -1.742,0.801 -3.176,1.676 -3.187,1.941 -0.012,0.266 1.582,1.516 3.543,2.782 4.246,2.738 13.546,10.382 21.898,18.004 l 6.047,5.519 1.148,-2.746 c 1.614,-3.863 2.594,-9.566 2.594,-15.086 0,-7.367 -0.395,-7.082 9.75,-7.082 h 8.84 l -0.707,3.156 c -1.477,6.563 -8.328,21.645 -12.156,26.746 l -1.899,2.532 5.024,5.804 c 9.582,11.067 21.898,29.586 21.898,32.918 0,0.586 -3.176,0.844 -10.348,0.844 h -10.351 l -0.914,-2.531 c -0.961,-2.66 -9.985,-16.492 -13.27,-20.344 l -1.918,-2.25 -1.597,2.25 c -0.875,1.238 -4.661,5.32 -8.411,9.07 -5.734,5.735 -7.949,7.375 -13.941,10.328 -3.918,1.93 -9.488,4.004 -12.375,4.606 -6.32,1.316 -18.043,1.348 -23.363,0.055 z m 27.699,-14.356 c 1.973,-0.68 6.023,-2.836 9,-4.789 6.219,-4.086 16.289,-13.184 16.289,-14.715 0,-1.238 -13.207,-14.203 -20.625,-20.25 -5.629,-4.59 -14.285,-10.601 -18.078,-12.551 -2.207,-1.136 -2.5,-1.109 -5.477,0.481 -11.297,6.043 -17.543,17.898 -16.32,30.98 1.336,14.317 12.332,23.391 27.125,22.387 2.477,-0.168 6.113,-0.863 8.086,-1.543 z m -2.316,-67.172 c 6.554,-4.207 9.343,-11.871 7.343,-20.199 -2.429,-10.129 -14.09,-14.809 -23.605,-9.473 -8.328,4.672 -8.695,15.403 -0.793,23.305 2.125,2.125 12,8.691 13.094,8.707 0.171,0 1.953,-1.051 3.961,-2.34 z m -198.481,81.137 -7.457,-0.418 0.332,-11.625 c 0.441,-15.27 0.434,-87.551 -0.012,-100.5 l -0.343,-10.125 23.968,0.023 c 22.305,0.024 24.442,0.145 30.719,1.715 22.902,5.719 37.356,21.047 41.344,43.84 2.375,13.555 0.262,28.817 -5.758,41.68 -8.644,18.469 -23.684,30.883 -41.961,34.633 -7.34,1.507 -22.57,1.797 -40.832,0.777 z m 39.297,-13.195 c 18.215,-4.328 30.695,-19.868 33.07,-41.164 2.266,-20.332 -6.004,-38.786 -21.406,-47.762 -8.629,-5.027 -24.137,-8.016 -36.527,-7.035 l -6.606,0.523 0.371,16.981 c 0.207,9.343 0.551,30.797 0.766,47.679 0.215,16.883 0.516,30.825 0.664,30.973 0.152,0.152 2.43,0.582 5.055,0.949 6.238,0.875 18.515,0.305 24.613,-1.144 z m -402.953,9.215 c 0.59,-3.555 0.812,-91.75 0.273,-108.188 l -0.343,-10.5 25.281,-0.199 c 27.922,-0.215 32.168,0.222 40.586,4.203 6.543,3.094 11.183,7.523 14.105,13.457 2.336,4.746 2.465,5.437 2.457,13.273 -0.012,9.789 -1.734,15.875 -6.32,22.258 -8.777,12.238 -27.399,19.383 -50.516,19.383 h -9.019 l 0.511,19.688 c 0.282,10.828 0.723,21.964 0.977,24.75 l 0.465,5.062 h -18.985 z m 45.484,-60.5 c 14.496,-3.778 21.242,-11.313 20.992,-23.454 -0.277,-13.375 -8.101,-20.351 -25.175,-22.453 -6.532,-0.801 -23.922,-0.043 -25.059,1.094 -0.215,0.215 -0.141,10.926 0.164,23.805 l 0.551,23.414 11.328,-0.442 c 7.742,-0.297 13.191,-0.922 17.199,-1.964 z m 61.02,59.375 c 0.59,-4.813 0.804,-90.661 0.269,-107.063 l -0.34,-10.5 26.59,0.012 c 23.348,0.011 27.184,0.179 31.414,1.367 13.164,3.703 19.77,10.172 21.782,21.332 1.078,5.988 -0.024,14.621 -2.582,20.211 -2.52,5.496 -9.215,12.308 -15.09,15.348 -2.641,1.363 -4.801,2.664 -4.801,2.89 0,0.227 1.254,0.867 2.793,1.426 3.66,1.324 10.933,8.309 13.648,13.113 3.602,6.367 18.805,43.219 18.805,45.582 0,0.352 -4.078,0.547 -9.066,0.43 l -9.063,-0.211 -5.156,-14.625 c -8.652,-24.555 -13.957,-33.145 -22.188,-35.922 -1.754,-0.594 -8.371,-1.137 -16.703,-1.375 l -13.804,-0.39 0.828,52.687 h -17.86 z m 44.699,-62 c 12.871,-3.508 18.777,-10.219 18.836,-21.387 0.082,-16.371 -11.875,-23.637 -36.551,-22.215 -4.883,0.281 -9.355,0.695 -9.937,0.918 -0.879,0.336 -1.059,4.18 -1.059,22.555 v 22.152 l 12.188,-0.422 c 7.476,-0.254 13.863,-0.875 16.523,-1.601 z m 543.316,62.375 c 0.754,-5.106 0.778,-110.942 0.028,-115.125 l -0.571,-3.188 h 71.829 l -0.372,6.938 c -0.203,3.816 -0.582,7.144 -0.843,7.398 -0.258,0.254 -8.743,0.195 -18.848,-0.137 -10.105,-0.328 -22.176,-0.621 -26.824,-0.648 l -8.449,-0.051 0.398,38.625 18.375,-0.191 c 10.105,-0.106 20.148,-0.383 22.313,-0.618 l 3.937,-0.425 v 14.527 l -22.312,-0.27 -22.313,-0.273 0.266,21.375 c 0.144,11.758 0.55,21.68 0.906,22.055 0.383,0.41 12.281,0.34 29.683,-0.172 15.977,-0.473 29.129,-0.774 29.235,-0.668 0.101,0.101 -0.012,3.469 -0.25,7.484 l -0.434,7.301 h -76.332 z m 127.715,0 c -1.25,-5.418 -9.035,-26.157 -17.242,-45.938 -16.523,-39.809 -24.863,-61.738 -26.609,-69.961 l -0.52,-2.461 9.195,0.211 9.192,0.211 1.008,4.5 c 1.582,7.055 5.644,18.883 16.347,47.625 10.051,26.984 14.485,39.777 16.364,47.25 l 1.035,4.125 0.59,-3.359 c 0.886,-5.067 7.582,-24.25 16.359,-46.891 11.75,-30.297 17.789,-48.027 17.789,-52.207 0,-1.309 0.672,-1.418 8.625,-1.418 6.879,0 8.625,0.211 8.625,1.047 0,4.047 -8.008,24.414 -22.992,58.473 -16.09,36.574 -24.258,57.238 -24.258,61.378 0,1.196 -0.73,1.352 -6.301,1.352 h -6.301 z m 79.285,0 c 0.754,-5.106 0.778,-110.942 0.028,-115.125 l -0.571,-3.188 h 71.829 l -0.372,6.938 c -0.203,3.816 -0.582,7.144 -0.843,7.398 -0.258,0.254 -8.743,0.195 -18.848,-0.137 -10.105,-0.328 -22.176,-0.621 -26.824,-0.648 l -8.449,-0.051 0.398,38.625 18.375,-0.191 c 10.105,-0.106 20.148,-0.383 22.313,-0.618 l 3.937,-0.425 v 14.527 l -22.312,-0.27 -22.313,-0.273 0.266,21.375 c 0.144,11.758 0.55,21.68 0.906,22.055 0.383,0.41 12.281,0.34 29.683,-0.172 15.977,-0.473 29.129,-0.774 29.235,-0.668 0.101,0.101 -0.012,3.469 -0.25,7.484 l -0.434,7.301 h -76.332 z m 100.395,1.875 c 1.48,-7.903 1.453,-112.536 -0.031,-118.5 -0.418,-1.684 -0.387,-1.688 8.781,-1.676 l 9.203,0.015 3,5.039 c 1.648,2.774 8.535,12.977 15.301,22.676 26.695,38.266 37.543,54.961 42.265,65.059 2.215,4.73 3.387,6.137 2.512,3.012 -0.262,-0.93 -0.793,-17.719 -1.18,-37.313 -0.386,-19.594 -0.91,-40.773 -1.164,-47.062 l -0.457,-11.438 h 16.641 l -0.586,5.063 c -0.754,6.562 -0.762,100.312 -0.012,109.875 l 0.578,7.312 h -13.441 l -5.406,-8.062 c -2.981,-4.434 -12.606,-18.235 -21.391,-30.665 -18.183,-25.734 -32.976,-47.953 -38.133,-57.273 l -3.515,-6.375 0.426,5.25 c 0.238,2.887 0.75,22.969 1.14,44.625 0.399,21.656 0.942,42.328 1.207,45.938 l 0.492,6.562 h -16.621 z m 152.465,-53.137 0.258,-55.199 -14.883,0.468 c -8.188,0.258 -16.996,0.657 -19.574,0.883 l -4.688,0.418 V 1006.5 h 93.75 v 12.938 l -38.625,-0.563 0.148,54.938 0.153,54.937 h -16.801 z M 1650,832.516 c -8.77,-1.203 -17.523,-4.672 -23.094,-9.145 -8.328,-6.691 -19.238,-26.023 -23.633,-41.891 -3.445,-12.429 -6.312,-24.66 -7.3,-31.105 -0.442,-2.887 -1.285,-7.445 -1.879,-10.125 -0.59,-2.68 -1.938,-11.625 -2.989,-19.875 -2.3,-18.043 -4.457,-31.066 -6.324,-38.211 -0.758,-2.91 -2.254,-9 -3.324,-13.539 -3.281,-13.961 -8.027,-27.195 -12.898,-36 -2.672,-4.828 -12.262,-14.27 -17.844,-17.57 -2.391,-1.41 -7.102,-3.391 -10.469,-4.395 -5.457,-1.629 -7.641,-1.84 -20.148,-1.93 -12.551,-0.093 -14.172,0.036 -15.375,1.235 -1.274,1.262 -1.36,5.031 -1.575,67.5 -0.308,90.316 0.606,114.16 4.793,124.66 2.032,5.094 9,16.371 12.582,20.355 l 3.411,3.793 -9.528,0.485 c -11.926,0.609 -93.156,0.652 -93.156,0.051 0,-0.246 1.465,-2.184 3.254,-4.313 7.148,-8.504 12.281,-17.891 14.973,-27.394 l 1.625,-5.727 0.222,-201.648 c 0.242,-218.176 0.414,-208.219 -3.699,-218.395 -2.277,-5.641 -6.102,-11.422 -11.52,-17.406 l -4.23,-4.676 52.75,0.016 c 64.09,0.015 74.395,0.48 90.496,4.086 15.84,3.546 24.059,6.351 35.703,12.179 13.508,6.762 21.86,12.668 31.586,22.344 13.317,13.246 22.449,28.273 28.809,47.395 5.394,16.234 5.656,18.433 5.656,47.48 0,29.039 -0.262,31.25 -5.648,47.457 -6.082,18.289 -17.196,36.227 -29.004,46.813 -7.387,6.621 -19.207,14.523 -29.875,19.968 -9.969,5.09 -11.598,6.469 -11.598,9.817 0,3.582 2.277,5.992 8.938,9.457 14.652,7.625 26.921,21.949 33.57,39.199 4.019,10.422 10.562,33.355 12.324,43.191 0.859,4.797 1.695,8.942 1.863,9.211 0.164,0.27 1.305,7.442 2.528,15.946 2.394,16.636 5.875,34.597 8.218,42.441 2.899,9.691 8.067,23.734 10.582,28.742 3.047,6.063 10.43,15.473 15.321,19.516 4.344,3.594 12.39,8.523 14.969,9.168 1.066,0.269 1.937,0.742 1.937,1.054 0,1.754 -17.152,7.696 -25.875,8.965 -6.91,1.008 -20.527,1.45 -25.125,0.821 z M 1531.457,595.375 c 17.535,-2.832 26.938,-6.496 38.289,-14.93 11.067,-8.218 20.098,-19.078 25.215,-30.32 4.051,-8.902 8.844,-29.383 10.117,-43.246 1.211,-13.211 0.477,-52.852 -1.148,-61.754 -3.481,-19.062 -7.746,-32.016 -13.989,-42.492 -8.441,-14.156 -22.668,-27.625 -34.359,-32.528 -11.676,-4.894 -27.098,-8.054 -39.859,-8.164 -9.848,-0.082 -11.52,0.735 -12.239,5.985 -0.265,1.941 -0.484,53.554 -0.484,114.687 0,109.426 0.023,111.176 1.469,112.485 3.179,2.879 10.426,2.953 26.988,0.277 z m 840.418,233.75 c -12.324,-1.719 -34.035,-6.672 -38.371,-8.75 -2.09,-1 -2.141,-1.187 -4.574,-17.051 -1.356,-8.824 -2.321,-16.183 -2.149,-16.355 0.172,-0.172 2.121,1.054 4.328,2.726 4.676,3.543 20.141,11.645 28.704,15.035 15.332,6.075 34.484,8.79 53.355,7.559 7.852,-0.512 9.949,-0.961 17,-3.629 10.031,-3.797 17.203,-8.672 25.656,-17.441 16.309,-16.918 21.203,-30.903 21.969,-62.75 0.387,-16.063 0.324,-17.008 -1.664,-26.625 -1.137,-5.481 -2.91,-12.332 -3.941,-15.219 -2.95,-8.246 -9.973,-21.676 -16.469,-31.5 -10.289,-15.562 -15.856,-21.719 -61.36,-67.875 -27.851,-28.25 -39.976,-42.516 -48.566,-57.133 -6.172,-10.508 -12.84,-24.254 -15.031,-30.992 -5.903,-18.16 -7.66,-31.027 -7.012,-51.375 0.594,-18.594 3.766,-31.977 11.023,-46.5 13.02,-26.051 38.172,-44.086 74.977,-53.766 l 10.875,-2.859 h 49.5 l 11.195,2.461 c 10.215,2.238 33.149,9.062 35.551,10.574 0.641,0.403 1.774,6.074 3.18,15.918 1.207,8.414 2.191,15.586 2.195,15.938 0,0.351 -1.101,-0.332 -2.457,-1.52 -5.453,-4.789 -15.184,-11.023 -23.195,-14.863 -16.41,-7.863 -28.672,-10.024 -49.406,-8.707 -14.313,0.91 -18.692,1.914 -28.43,6.527 -8.32,3.942 -15.953,9.559 -22.707,16.723 -7.629,8.086 -11.879,16.113 -16.047,30.32 -2.539,8.645 -2.699,9.863 -3.059,23.004 -0.55,20.246 0.989,27.727 9.176,44.625 8.383,17.305 20.43,32.012 47.301,57.75 37.414,35.836 55.226,54.125 66.473,68.25 6.082,7.641 14.816,21.23 19.996,31.125 5.8,11.066 9.922,21.715 13.015,33.633 l 2.469,9.492 v 51 l -2.426,9.141 c -4.078,15.359 -10.902,30.422 -18.113,39.984 -5.172,6.863 -16.973,18.059 -23.469,22.27 -13.84,8.972 -30.219,15.703 -46.023,18.898 -12.938,2.621 -18.914,3.133 -40.094,3.441 -18.633,0.27 -21.855,0.125 -33.375,-1.484 z M 1876.5,829.77 c -1.031,-0.153 -4.406,-0.649 -7.5,-1.106 -13.109,-1.941 -30.336,-8.828 -42.898,-17.156 -8.227,-5.449 -21.676,-19.121 -27.731,-28.192 -8.937,-13.375 -17.805,-33.796 -20.488,-47.191 -0.664,-3.301 -1.711,-7.687 -2.332,-9.75 -1.977,-6.594 -2.492,-36.719 -2.946,-172.875 -0.48,-142.645 -0.898,-164.621 -3.335,-174.613 -2.793,-11.446 -6.832,-18.957 -14.485,-26.926 l -4.523,-4.711 h 51.871 c 28.527,0 51.867,0.219 51.867,0.488 0,0.27 -1.625,2.211 -3.609,4.313 -4.946,5.242 -9.371,12.996 -12.125,21.258 -2.047,6.129 -2.399,8.48 -3.024,20.25 -0.902,17 -0.898,295.621 0,315.191 0.582,12.547 1.063,16.332 3.387,26.625 3.355,14.836 5.512,21.348 9.851,29.754 4.133,8.004 8.875,14.293 16.129,21.383 8.969,8.765 19.289,13.422 33.793,15.25 7.977,1.004 18.922,0.168 26.297,-2.008 6.016,-1.774 15.555,-6.555 20.508,-10.277 6.094,-4.582 16.883,-15.911 20.602,-21.637 9.617,-14.801 16.312,-35.078 18.765,-56.84 1.153,-10.242 1.754,-215.18 0.824,-282 -0.644,-46.437 -0.703,-47.746 -2.335,-52.5 -3.528,-10.27 -7.305,-16.801 -15.512,-26.812 l -1.996,-2.438 h 62.566 l -4.933,5.438 c -5.469,6.023 -9.821,13.691 -12.793,22.55 -1.719,5.125 -2.047,7.739 -2.661,21.364 -0.382,8.539 -0.714,57.375 -0.738,108.523 -0.051,105.359 -1.055,198.695 -2.269,210.375 -1.289,12.395 -6.086,33.66 -9.395,41.625 -0.684,1.648 -3.379,7.473 -5.988,12.938 -16.074,33.644 -45.813,55.468 -80.973,59.417 -6.312,0.708 -27.695,0.903 -31.875,0.29 v 0 z M 441,826.637 c 0,-0.442 4.297,-4.449 9.547,-8.907 5.25,-4.457 10.41,-8.949 11.465,-9.98 2.074,-2.023 6.258,-11.289 75.746,-167.625 24.019,-54.039 57.586,-129.469 74.594,-167.625 17.007,-38.156 35.73,-80.215 41.609,-93.465 l 10.691,-24.09 9.114,-0.519 c 5.007,-0.285 9.836,-0.242 10.722,0.09 1.547,0.582 0.875,2.273 -15.597,39.234 -18.332,41.148 -27.703,62.188 -78.481,176.25 -76.289,171.363 -99.07,222.688 -101.035,227.625 -4.25,10.688 -3.258,15.582 4.734,23.34 2.7,2.621 4.668,5.008 4.375,5.301 -0.918,0.918 -57.484,1.285 -57.484,0.371 z m 461.813,0.051 c -10.622,-0.118 -19.313,-0.372 -19.313,-0.567 0,-0.195 2.277,-3.082 5.063,-6.41 10.117,-12.102 13.48,-19.844 14.488,-33.336 0.851,-11.441 0.832,-384.879 -0.02,-395.625 -1.133,-14.254 -6.273,-28.891 -12.511,-35.625 -1.532,-1.648 -3.801,-4.098 -5.047,-5.437 l -2.266,-2.438 H 987.23 l -4.093,4.313 c -9.063,9.554 -11.551,14.964 -15.266,33.203 L 966,393.957 v 416.008 l 1.773,1.164 c 2.665,1.746 15.676,2.027 60.477,1.316 l 39.375,-0.625 8.109,-3.125 c 9.145,-3.527 14.754,-7.226 23.676,-15.621 l 6.09,-5.73 v 39.906 l -91.687,-0.176 c -50.43,-0.094 -100.379,-0.269 -111,-0.386 z m 277.085,0.042 -6.226,-0.292 4.351,-4.75 c 5.465,-5.961 10.063,-13.95 13.391,-23.262 L 1194,791.188 V 363.617 l -1.687,-1.41 c -1.555,-1.297 -3.239,-1.41 -21.336,-1.434 -20.528,-0.023 -35.219,0.864 -44.102,2.661 -2.887,0.586 -8.457,2.629 -12.375,4.543 -6.07,2.961 -8.141,4.496 -13.984,10.375 l -6.86,6.898 -0.445,-2.687 c -0.246,-1.477 -0.449,-10.028 -0.453,-19 l -0.012,-16.313 h 264.75 v 38.289 l -7.683,-7.746 c -10.997,-11.07 -17.774,-14.313 -33.942,-16.234 -8.144,-0.973 -55.058,-1.063 -56.558,-0.114 -0.586,0.371 -1.325,2.477 -1.633,4.676 -0.317,2.203 -0.598,98.539 -0.625,214.086 l -0.059,210.082 2.895,7.793 c 4.636,12.504 7.586,17.633 14.289,24.84 1.425,1.543 2.34,3.058 2.019,3.375 -0.59,0.59 -84.965,0.969 -96.304,0.433 v 0 z m 972.04,-0.039 c -5.055,-0.132 -9.188,-0.328 -9.188,-0.441 0,-0.109 1.797,-2.059 3.996,-4.324 4.625,-4.778 9.996,-12.426 11.164,-15.899 0.445,-1.32 1.063,-2.738 1.371,-3.152 0.313,-0.414 1.157,-2.605 1.879,-4.875 1.227,-3.852 1.363,-15.309 2.031,-171.75 0.465,-108.891 0.457,-181.422 -0.019,-207 -0.797,-42.672 -0.406,-38.687 -4.988,-50.887 -1.621,-4.304 -6.188,-10.949 -11.387,-16.566 l -4.207,-4.547 h 103.851 l -1.781,2.168 c -7.457,9.059 -9.367,11.832 -12.703,18.457 -3.227,6.406 -3.906,8.539 -4.68,14.625 -1.343,10.598 -1.3,395.539 0.047,406.008 1.5,11.68 7.567,24.711 15.77,33.867 l 3.359,3.75 -7.414,0.473 c -7.394,0.476 -69.676,0.539 -87.101,0.093 z M 2691,826.883 c 0,-0.203 1.66,-2.199 3.688,-4.442 6.332,-6.988 10.515,-14.195 13.98,-24.066 l 2.102,-6 0.617,-428.008 -3.399,-3.617 h -18.843 c -28.575,0 -44.18,1.52 -53.547,5.211 -5.977,2.355 -11.016,5.898 -18.66,13.125 L 2610,385.641 V 347.25 h 264.75 v 38.371 l -7.687,-7.789 c -14.93,-15.121 -22.379,-17.078 -65.106,-17.078 -19.91,-0.004 -24.687,0.191 -25.875,1.062 -1.434,1.047 -1.461,4.02 -1.656,195.938 -0.113,107.18 0.105,203.984 0.476,215.121 0.645,19.176 0.789,20.566 2.735,26.25 3.633,10.609 6.586,15.762 13.301,23.199 1.96,2.172 3.562,4.168 3.562,4.438 0,0.269 -23.289,0.488 -51.75,0.488 -28.461,0 -51.75,-0.164 -51.75,-0.367 z M 684,824.414 c 0,-0.32 2.211,-2.766 4.914,-5.437 2.703,-2.668 7.035,-8.059 9.625,-11.977 l 4.711,-7.125 -0.105,-223.312 -0.102,-223.313 h 60.207 l 0.5,135.563 c 0.273,74.558 0.523,167.289 0.551,206.062 0.027,38.773 0.304,76.238 0.613,83.25 0.555,12.602 0.594,12.82 3.32,18.664 3.528,7.559 9.664,16.703 15.528,23.149 L 788.371,825 H 736.184 C 707.484,825 684,824.738 684,824.414 Z" /></g></g></g></svg>